<svg width="55" height="51" viewBox="0 0 55 51" fill="none" xmlns="http://www.w3.org/2000/svg">
<path d="M19.3593 27.2323H9.22343L7.22869 34.4186H0.363144L11.4269 0H17.3414L28.1964 34.4186H21.3309L19.3593 27.2323ZM10.8238 21.5825H17.8285L14.3726 8.91196L10.8238 21.5825ZM41.647 21.5589H36.7064V34.4186H30.1887V0H41.5074C43.3788 0 45.0716 0.2285 46.5872 0.685548C48.1023 1.12681 49.4012 1.78079 50.4838 2.64758C51.5507 3.51438 52.3701 4.59388 52.9426 5.88616C53.5299 7.17843 53.8238 8.67555 53.8238 10.3776C53.8238 11.6068 53.6769 12.7179 53.383 13.7107C53.1049 14.6878 52.7026 15.5624 52.1771 16.3346C51.6358 17.1226 50.9866 17.8081 50.2285 18.3913C49.4863 18.9743 48.6515 19.4786 47.7238 19.9042L54.9837 34.1114V34.4186H48.0019L41.647 21.5589ZM36.7064 16.1692H41.5307C42.5356 16.1692 43.4174 16.0273 44.175 15.7437C44.9479 15.4442 45.5743 15.0187 46.0538 14.4671C46.4556 14.0259 46.7574 13.4979 46.9583 12.8833C47.1745 12.2687 47.2829 11.5832 47.2829 10.8267C47.2829 9.91265 47.1438 9.10894 46.8653 8.41553C46.6025 7.70633 46.2007 7.12326 45.6594 6.66626C45.1799 6.25646 44.5926 5.94128 43.8964 5.72069C43.2007 5.50001 42.4045 5.38972 41.5074 5.38972H36.7064V16.1692Z" fill="#151515"/>
<path d="M2.51271 37.4202L2.59728 38.8852C2.84696 38.3516 3.18922 37.933 3.62412 37.6295C4.06707 37.3254 4.5986 37.1736 5.21875 37.1736C5.54088 37.1736 5.83084 37.2109 6.08854 37.2845C6.34624 37.3586 6.56771 37.4731 6.75297 37.6295C6.8979 37.7444 7.0268 37.8836 7.13952 38.048C7.25229 38.2039 7.34893 38.3844 7.42948 38.5896C7.5422 38.401 7.67105 38.2245 7.81603 38.0601C7.96101 37.8962 8.11807 37.7565 8.28719 37.6416C8.50461 37.4938 8.74623 37.3788 9.012 37.2971C9.28583 37.2149 9.5838 37.1736 9.90593 37.1736C10.3247 37.1736 10.7073 37.2477 11.0536 37.3955C11.4079 37.5352 11.714 37.7525 11.9717 38.048C12.2294 38.3597 12.4267 38.7661 12.5636 39.2669C12.7086 39.7591 12.7811 40.3542 12.7811 41.0521V50.7418H10.1234V41.0274C10.1234 40.7647 10.0952 40.5433 10.0388 40.3628C9.98248 40.1737 9.90192 40.0219 9.79722 39.9069C9.69251 39.8005 9.56366 39.7223 9.41067 39.6729C9.26569 39.624 9.10463 39.5993 8.92743 39.5993C8.74222 39.5993 8.58111 39.624 8.4442 39.6729C8.30733 39.7223 8.1865 39.7919 8.0818 39.8822C7.98516 39.9644 7.90465 40.0632 7.84018 40.1777C7.77575 40.2846 7.72746 40.4077 7.69525 40.5473C7.69525 40.5801 7.69525 40.621 7.69525 40.6704C7.69525 40.7112 7.69525 40.7728 7.69525 40.855V50.7418H5.08585V41.0153C5.08585 40.7526 5.05769 40.5307 5.00128 40.3502C4.95299 40.1616 4.87649 40.0138 4.77179 39.9069C4.66709 39.8005 4.54224 39.7223 4.39726 39.6729C4.26035 39.624 4.10334 39.5993 3.92615 39.5993C3.73288 39.5993 3.55969 39.628 3.40669 39.6855C3.26171 39.7349 3.13687 39.8126 3.03217 39.9195C2.95166 39.9931 2.87917 40.0794 2.81475 40.1777C2.75839 40.2765 2.70604 40.387 2.65769 40.5105V50.7418H0V37.4202H2.51271ZM21.285 50.9879C20.3186 50.9879 19.4327 50.8235 18.6273 50.4952C17.83 50.1669 17.1455 49.7115 16.5736 49.1285C16.0018 48.5541 15.5589 47.8769 15.2448 47.0972C14.9388 46.3095 14.7858 45.4597 14.7858 44.5485V44.0437C14.7858 43.0013 14.9468 42.0577 15.269 41.212C15.5911 40.3668 16.034 39.6441 16.5978 39.045C17.1616 38.4459 17.8139 37.9865 18.5548 37.6663C19.3038 37.338 20.1011 37.1736 20.9468 37.1736C21.889 37.1736 22.7226 37.338 23.4474 37.6663C24.1723 37.9865 24.7803 38.4338 25.2716 39.0082C25.7628 39.5912 26.1333 40.2846 26.383 41.089C26.6326 41.8933 26.7575 42.7718 26.7575 43.7239V44.9918H17.6971V45.0533C17.7857 45.6362 17.9227 46.1244 18.1079 46.5188C18.2931 46.9126 18.5468 47.2656 18.8689 47.5773C19.1911 47.9056 19.5696 48.1603 20.0045 48.3408C20.4474 48.5214 20.9307 48.6116 21.4541 48.6116C22.1709 48.6116 22.8394 48.4719 23.4595 48.1931C24.0796 47.9056 24.591 47.4996 24.9937 46.9742L26.54 48.5007C26.1051 49.1411 25.4367 49.7155 24.5347 50.2244C23.6407 50.7332 22.5575 50.9879 21.285 50.9879ZM20.9347 39.5624C20.5239 39.5624 20.1414 39.6401 19.7871 39.7964C19.4407 39.9442 19.1307 40.1575 18.8569 40.4364C18.583 40.7238 18.3535 41.0683 18.1683 41.4707C17.983 41.8726 17.8462 42.3285 17.7575 42.8374H23.9065V42.6402C23.9065 42.2544 23.838 41.8726 23.7011 41.4954C23.5642 41.1096 23.3709 40.7728 23.1213 40.4858C22.8797 40.2064 22.5736 39.985 22.2031 39.8206C21.8407 39.6487 21.4179 39.5624 20.9347 39.5624ZM29.499 50.7418V37.4202H32.1084L32.2896 39.3158C32.4668 39.0617 32.6601 38.8277 32.8695 38.6144C33.0869 38.3925 33.3165 38.1958 33.558 38.0233C33.9446 37.7525 34.3675 37.5432 34.8265 37.3955C35.2856 37.2477 35.7688 37.1736 36.2761 37.1736C36.9446 37.1736 37.5567 37.2724 38.1123 37.4691C38.6681 37.6663 39.1432 37.9779 39.5379 38.4051C39.9325 38.8317 40.2387 39.3774 40.4559 40.0425C40.6737 40.6991 40.782 41.4954 40.782 42.4309V50.7418H37.8949V42.4803C37.8949 41.9301 37.8345 41.4707 37.7137 41.1011C37.5929 40.7319 37.4157 40.4364 37.1822 40.215C36.9486 39.9931 36.6668 39.8373 36.3366 39.747C36.0064 39.6487 35.6278 39.5993 35.201 39.5993C34.8466 39.5993 34.5164 39.6487 34.2104 39.747C33.9044 39.8373 33.6265 39.9684 33.3768 40.1409C33.1836 40.2725 33.0024 40.4324 32.8332 40.621C32.6641 40.8101 32.5151 41.0153 32.3863 41.2367V50.7418H29.499ZM52.3785 50.7418L52.2097 48.8824C51.7664 49.5476 51.227 50.0686 50.5907 50.4463C49.9544 50.8154 49.2419 51 48.4526 51C47.7762 51 47.1557 50.8936 46.5921 50.6803C46.0364 50.4584 45.5575 50.118 45.1547 49.658C44.7598 49.1986 44.454 48.6116 44.2363 47.8975C44.0191 47.1754 43.9102 46.3135 43.9102 45.312V37.4202H46.7975V45.3367C46.7975 45.9524 46.842 46.4694 46.9306 46.8879C47.0191 47.2984 47.1602 47.6267 47.3531 47.8728C47.5466 48.1275 47.792 48.308 48.0899 48.4144C48.3883 48.5214 48.7386 48.5748 49.1409 48.5748C49.56 48.5748 49.9346 48.5294 50.2646 48.4392C50.5947 48.3408 50.8846 48.2097 51.1345 48.0453C51.3438 47.8975 51.5289 47.7251 51.6902 47.5284C51.851 47.3231 51.9881 47.0972 52.1009 46.8511V37.4202H55V50.7418H52.3785Z" fill="#151515"/>
</svg>
